<svg preserveAspectRatio="none" width="100%" height="100%" overflow="visible" style="display: block;" viewBox="0 0 13 16" fill="none" xmlns="http://www.w3.org/2000/svg">
<g id="Group">
<path id="Vector" d="M6.742 0.1845C6.46 -0.0615 6.039 -0.0615 5.757 0.1845C5.522 0.3895 0 5.2515 0 9.7325C0 13.1885 2.804 15.9995 6.25 15.9995C9.696 15.9995 12.5 13.1875 12.5 9.7325C12.499 5.2515 6.977 0.3885 6.742 0.1845ZM6.249 14.4995C4.726 14.4995 3.487 13.2575 3.487 11.7305C3.487 9.9085 5.524 8.0805 5.757 7.8785C6.039 7.6325 6.46 7.6325 6.742 7.8785C6.974 8.0805 9.012 9.9085 9.012 11.7305C9.012 13.2565 7.773 14.4995 6.25 14.4995H6.249Z" fill="var(--fill-0, #7B7B7B)"/>
</g>
</svg>
