<svg preserveAspectRatio="none" width="100%" height="100%" overflow="visible" style="display: block;" viewBox="0 0 14 14" fill="none" xmlns="http://www.w3.org/2000/svg">
<g id="Group">
<path id="Vector" d="M3.25 0H1.75C0.783502 0 0 0.783502 0 1.75V12.25C0 13.2165 0.783502 14 1.75 14H3.25C4.2165 14 5 13.2165 5 12.25V1.75C5 0.783502 4.2165 0 3.25 0Z" fill="var(--fill-0, black)"/>
<path id="Vector_2" d="M12.25 0H10.75C9.7835 0 9 0.783502 9 1.75V12.25C9 13.2165 9.7835 14 10.75 14H12.25C13.2165 14 14 13.2165 14 12.25V1.75C14 0.783502 13.2165 0 12.25 0Z" fill="var(--fill-0, black)"/>
</g>
</svg>
