<svg preserveAspectRatio="none" width="100%" height="100%" overflow="visible" style="display: block;" viewBox="0 0 13 16" fill="none" xmlns="http://www.w3.org/2000/svg">
<g id="Group">
<path id="Vector" d="M10.513 0.0149768L7.013 0.491977C6.151 0.609977 5.5 1.35598 5.5 2.22598V9.48798C4.932 9.08998 4.244 8.85298 3.5 8.85298C1.57 8.85298 0 10.423 0 12.353C0 14.283 1.57 15.853 3.5 15.853C5.43 15.853 7 14.283 7 12.353V5.25798L10.987 4.71498C11.849 4.59698 12.5 3.85098 12.5 2.98098V1.74998C12.5 1.24498 12.282 0.763977 11.901 0.431977C11.52 0.0989769 11.007 -0.0520231 10.514 0.0159769L10.513 0.0149768Z" fill="var(--fill-0, #7B7B7B)"/>
</g>
</svg>
