<svg preserveAspectRatio="none" width="100%" height="100%" overflow="visible" style="display: block;" viewBox="0 0 12 16" fill="none" xmlns="http://www.w3.org/2000/svg">
<g id="Group">
<path id="Vector" d="M9.37336 1.28428C8.02236 0.186284 6.25236 -0.234716 4.51736 0.126284C2.29037 0.591284 0.515365 2.41228 0.100365 4.65728C-0.343635 7.05628 0.712365 9.40728 2.74936 10.6493V13.2483C2.74936 14.7653 3.98337 15.9983 5.49937 15.9983H5.99937C7.51637 15.9983 8.74937 14.7653 8.74937 13.2483V10.6493C10.4574 9.60728 11.4994 7.76929 11.4994 5.74828C11.4994 4.00928 10.7244 2.38228 9.37436 1.28428H9.37336ZM5.99836 14.4983H5.49836C4.80936 14.4983 4.24836 13.9373 4.24836 13.2483V11.9983H7.24836V13.2483C7.24836 13.9373 6.68736 14.4983 5.99836 14.4983Z" fill="var(--fill-0, white)"/>
</g>
</svg>
