<svg preserveAspectRatio="none" width="100%" height="100%" overflow="visible" style="display: block;" viewBox="0 0 14 14" fill="none" xmlns="http://www.w3.org/2000/svg">
<g id="Group">
<path id="Vector" d="M11.25 0H2.75C1.233 0 0 1.233 0 2.75V11.25C0 12.767 1.233 14 2.75 14H11.25C12.767 14 14 12.767 14 11.25V2.75C14 1.233 12.767 0 11.25 0ZM10.25 7.75H7.75V10.25C7.75 10.664 7.414 11 7 11C6.586 11 6.25 10.664 6.25 10.25V7.75H3.75C3.336 7.75 3 7.414 3 7C3 6.586 3.336 6.25 3.75 6.25H6.25V3.75C6.25 3.336 6.586 3 7 3C7.414 3 7.75 3.336 7.75 3.75V6.25H10.25C10.664 6.25 11 6.586 11 7C11 7.414 10.664 7.75 10.25 7.75Z" fill="var(--fill-0, #B4B4B4)"/>
</g>
</svg>
