<svg preserveAspectRatio="none" width="100%" height="100%" overflow="visible" style="display: block;" viewBox="0 0 16 16" fill="none" xmlns="http://www.w3.org/2000/svg">
<g id="Group">
<path id="Vector" d="M8 0C3.589 0 0 3.589 0 8C0 12.411 3.589 16 8 16C12.411 16 16 12.411 16 8C16 3.589 12.411 0 8 0ZM10.778 8.648L7.128 10.777C7.01 10.846 6.88 10.881 6.75 10.881C6.622 10.881 6.494 10.847 6.376 10.78C6.14 10.645 6 10.402 6 10.13V5.871C6 5.599 6.141 5.356 6.376 5.221C6.612 5.085 6.893 5.087 7.127 5.223L10.777 7.352C11.01 7.488 11.15 7.73 11.15 8C11.15 8.27 11.012 8.512 10.778 8.648Z" fill="var(--fill-0, #EEEEEE)"/>
</g>
</svg>
