<svg preserveAspectRatio="none" width="100%" height="100%" overflow="visible" style="display: block;" viewBox="0 0 24 21" fill="none" xmlns="http://www.w3.org/2000/svg">
<g id="Group">
<path id="Vector" d="M15.1333 0.204632C14.6 -0.0873678 13.948 -0.0660346 13.436 0.263299L6.376 4.78197H3C1.34533 4.78197 0 6.1273 0 7.78196V12.4486C0 14.1033 1.34533 15.4486 3 15.4486H6.37467L13.4347 19.9673C13.708 20.142 14.02 20.2313 14.3347 20.2313C14.6093 20.2313 14.884 20.1633 15.1333 20.0273C15.668 19.7353 16 19.174 16 18.5646V1.6673C16 1.05797 15.668 0.497966 15.1333 0.204632Z" fill="var(--fill-0, #EEEEEE)"/>
<path id="Vector_2" d="M19.2587 7.5233C18.868 7.13263 18.2333 7.13263 17.844 7.5233C17.4533 7.91397 17.4533 8.5473 17.844 8.93797C18.1587 9.25263 18.332 9.6713 18.332 10.1166C18.332 10.562 18.1587 10.9793 17.844 11.2953C17.4533 11.6846 17.4533 12.3193 17.844 12.71C18.0387 12.9046 18.2947 13.0033 18.5507 13.0033C18.8067 13.0033 19.0627 12.906 19.2573 12.71C19.9507 12.018 20.332 11.098 20.332 10.118C20.332 9.13797 19.9507 8.21797 19.2573 7.52597L19.2587 7.5233Z" fill="var(--fill-0, #EEEEEE)"/>
<path id="Vector_3" d="M20.4387 4.92997C20.048 5.32063 20.048 5.95397 20.4387 6.34463C22.5187 8.42463 22.5187 11.8086 20.4387 13.8873C20.048 14.278 20.048 14.9113 20.4387 15.302C20.6333 15.4966 20.8893 15.5953 21.1453 15.5953C21.4013 15.5953 21.6573 15.498 21.852 15.302C23.2373 13.9166 24 12.0753 24 10.1166C24 8.15797 23.2373 6.3153 21.852 4.9313C21.4613 4.54063 20.828 4.54063 20.4373 4.9313L20.4387 4.92997Z" fill="var(--fill-0, #EEEEEE)"/>
</g>
</svg>
