<svg preserveAspectRatio="none" width="100%" height="100%" overflow="visible" style="display: block;" viewBox="0 0 12 16" fill="none" xmlns="http://www.w3.org/2000/svg">
<g id="Group">
<path id="Vector" d="M9.3733 1.28435C8.0223 0.186345 6.2523 -0.234655 4.5173 0.126345C2.2903 0.591345 0.515304 2.41235 0.100304 4.65735C-0.343696 7.05635 0.712304 9.40735 2.7493 10.6493V13.2483C2.7493 14.7653 3.9833 15.9983 5.4993 15.9983H5.9993C7.5163 15.9983 8.7493 14.7653 8.7493 13.2483V10.6493C10.4573 9.60735 11.4993 7.76935 11.4993 5.74835C11.4993 4.00935 10.7243 2.38235 9.3743 1.28435H9.3733ZM5.9983 14.4983H5.4983C4.8093 14.4983 4.2483 13.9373 4.2483 13.2483V11.9983H7.2483V13.2483C7.2483 13.9373 6.6873 14.4983 5.9983 14.4983Z" fill="var(--fill-0, white)"/>
</g>
</svg>
