<svg preserveAspectRatio="none" width="100%" height="100%" overflow="visible" style="display: block;" viewBox="0 0 16 22" fill="none" xmlns="http://www.w3.org/2000/svg">
<g id="Group">
<path id="Vector" d="M12.3333 0H3.66667C1.644 0 0 1.644 0 3.66667V17.6667C0 19.6893 1.644 21.3333 3.66667 21.3333H12.3333C14.356 21.3333 16 19.6893 16 17.6667V3.66667C16 1.644 14.356 0 12.3333 0ZM8 4.66667C8.736 4.66667 9.33333 5.264 9.33333 6C9.33333 6.736 8.736 7.33333 8 7.33333C7.264 7.33333 6.66667 6.736 6.66667 6C6.66667 5.264 7.264 4.66667 8 4.66667ZM8 16.6667C6.15867 16.6667 4.66667 15.1747 4.66667 13.3333C4.66667 11.492 6.15867 10 8 10C9.84133 10 11.3333 11.492 11.3333 13.3333C11.3333 15.1747 9.84133 16.6667 8 16.6667Z" fill="var(--fill-0, #EEEEEE)"/>
</g>
</svg>
